<mxfile host="app.diagrams.net" agent="Mozilla/5.0 (Windows NT 10.0; Win64; x64; rv:132.0) Gecko/20100101 Firefox/132.0" version="24.8.6">
  <diagram id="R2lEEEUBdFMjLlhIrx00" name="Page-1">
    <mxGraphModel grid="0" page="0" gridSize="10" guides="1" tooltips="1" connect="1" arrows="1" fold="1" pageScale="1" pageWidth="850" pageHeight="1100" math="0" shadow="0" extFonts="Permanent Marker^https://fonts.googleapis.com/css?family=Permanent+Marker">
      <root>
        <mxCell id="0" />
        <mxCell id="1" parent="0" />
        <mxCell id="fcRUaoHgYwaDts0upMFB-3" style="edgeStyle=none;shape=connector;rounded=0;orthogonalLoop=1;jettySize=auto;html=1;strokeColor=default;align=center;verticalAlign=middle;fontFamily=Helvetica;fontSize=11;fontColor=default;labelBackgroundColor=default;endArrow=none;endFill=0;" edge="1" parent="1" source="E8W4lwWyUq7ppPV35f_z-3" target="fcRUaoHgYwaDts0upMFB-1">
          <mxGeometry relative="1" as="geometry" />
        </mxCell>
        <mxCell id="fcRUaoHgYwaDts0upMFB-12" value="N" style="edgeLabel;html=1;align=center;verticalAlign=middle;resizable=0;points=[];fontFamily=Helvetica;fontSize=11;fontColor=default;labelBackgroundColor=default;" connectable="0" vertex="1" parent="fcRUaoHgYwaDts0upMFB-3">
          <mxGeometry x="-0.662" y="2" relative="1" as="geometry">
            <mxPoint x="-2" y="-13" as="offset" />
          </mxGeometry>
        </mxCell>
        <mxCell id="E8W4lwWyUq7ppPV35f_z-3" value="USUARIO" style="shape=table;startSize=30;container=1;collapsible=1;childLayout=tableLayout;fixedRows=1;rowLines=0;fontStyle=1;align=center;resizeLast=1;html=1;" vertex="1" parent="1">
          <mxGeometry x="-311" y="110" width="180" height="210" as="geometry" />
        </mxCell>
        <mxCell id="E8W4lwWyUq7ppPV35f_z-4" value="" style="shape=tableRow;horizontal=0;startSize=0;swimlaneHead=0;swimlaneBody=0;fillColor=none;collapsible=0;dropTarget=0;points=[[0,0.5],[1,0.5]];portConstraint=eastwest;top=0;left=0;right=0;bottom=1;" vertex="1" parent="E8W4lwWyUq7ppPV35f_z-3">
          <mxGeometry y="30" width="180" height="30" as="geometry" />
        </mxCell>
        <mxCell id="E8W4lwWyUq7ppPV35f_z-5" value="PK" style="shape=partialRectangle;connectable=0;fillColor=none;top=0;left=0;bottom=0;right=0;fontStyle=1;overflow=hidden;whiteSpace=wrap;html=1;" vertex="1" parent="E8W4lwWyUq7ppPV35f_z-4">
          <mxGeometry width="30" height="30" as="geometry">
            <mxRectangle width="30" height="30" as="alternateBounds" />
          </mxGeometry>
        </mxCell>
        <mxCell id="E8W4lwWyUq7ppPV35f_z-6" value="id" style="shape=partialRectangle;connectable=0;fillColor=none;top=0;left=0;bottom=0;right=0;align=left;spacingLeft=6;fontStyle=5;overflow=hidden;whiteSpace=wrap;html=1;" vertex="1" parent="E8W4lwWyUq7ppPV35f_z-4">
          <mxGeometry x="30" width="150" height="30" as="geometry">
            <mxRectangle width="150" height="30" as="alternateBounds" />
          </mxGeometry>
        </mxCell>
        <mxCell id="E8W4lwWyUq7ppPV35f_z-7" value="" style="shape=tableRow;horizontal=0;startSize=0;swimlaneHead=0;swimlaneBody=0;fillColor=none;collapsible=0;dropTarget=0;points=[[0,0.5],[1,0.5]];portConstraint=eastwest;top=0;left=0;right=0;bottom=0;" vertex="1" parent="E8W4lwWyUq7ppPV35f_z-3">
          <mxGeometry y="60" width="180" height="30" as="geometry" />
        </mxCell>
        <mxCell id="E8W4lwWyUq7ppPV35f_z-8" value="UN" style="shape=partialRectangle;connectable=0;fillColor=none;top=0;left=0;bottom=0;right=0;editable=1;overflow=hidden;whiteSpace=wrap;html=1;" vertex="1" parent="E8W4lwWyUq7ppPV35f_z-7">
          <mxGeometry width="30" height="30" as="geometry">
            <mxRectangle width="30" height="30" as="alternateBounds" />
          </mxGeometry>
        </mxCell>
        <mxCell id="E8W4lwWyUq7ppPV35f_z-9" value="email" style="shape=partialRectangle;connectable=0;fillColor=none;top=0;left=0;bottom=0;right=0;align=left;spacingLeft=6;overflow=hidden;whiteSpace=wrap;html=1;" vertex="1" parent="E8W4lwWyUq7ppPV35f_z-7">
          <mxGeometry x="30" width="150" height="30" as="geometry">
            <mxRectangle width="150" height="30" as="alternateBounds" />
          </mxGeometry>
        </mxCell>
        <mxCell id="E8W4lwWyUq7ppPV35f_z-10" value="" style="shape=tableRow;horizontal=0;startSize=0;swimlaneHead=0;swimlaneBody=0;fillColor=none;collapsible=0;dropTarget=0;points=[[0,0.5],[1,0.5]];portConstraint=eastwest;top=0;left=0;right=0;bottom=0;" vertex="1" parent="E8W4lwWyUq7ppPV35f_z-3">
          <mxGeometry y="90" width="180" height="30" as="geometry" />
        </mxCell>
        <mxCell id="E8W4lwWyUq7ppPV35f_z-11" value="" style="shape=partialRectangle;connectable=0;fillColor=none;top=0;left=0;bottom=0;right=0;editable=1;overflow=hidden;whiteSpace=wrap;html=1;" vertex="1" parent="E8W4lwWyUq7ppPV35f_z-10">
          <mxGeometry width="30" height="30" as="geometry">
            <mxRectangle width="30" height="30" as="alternateBounds" />
          </mxGeometry>
        </mxCell>
        <mxCell id="E8W4lwWyUq7ppPV35f_z-12" value="nombre completo" style="shape=partialRectangle;connectable=0;fillColor=none;top=0;left=0;bottom=0;right=0;align=left;spacingLeft=6;overflow=hidden;whiteSpace=wrap;html=1;" vertex="1" parent="E8W4lwWyUq7ppPV35f_z-10">
          <mxGeometry x="30" width="150" height="30" as="geometry">
            <mxRectangle width="150" height="30" as="alternateBounds" />
          </mxGeometry>
        </mxCell>
        <mxCell id="E8W4lwWyUq7ppPV35f_z-13" value="" style="shape=tableRow;horizontal=0;startSize=0;swimlaneHead=0;swimlaneBody=0;fillColor=none;collapsible=0;dropTarget=0;points=[[0,0.5],[1,0.5]];portConstraint=eastwest;top=0;left=0;right=0;bottom=0;" vertex="1" parent="E8W4lwWyUq7ppPV35f_z-3">
          <mxGeometry y="120" width="180" height="30" as="geometry" />
        </mxCell>
        <mxCell id="E8W4lwWyUq7ppPV35f_z-14" value="" style="shape=partialRectangle;connectable=0;fillColor=none;top=0;left=0;bottom=0;right=0;editable=1;overflow=hidden;whiteSpace=wrap;html=1;" vertex="1" parent="E8W4lwWyUq7ppPV35f_z-13">
          <mxGeometry width="30" height="30" as="geometry">
            <mxRectangle width="30" height="30" as="alternateBounds" />
          </mxGeometry>
        </mxCell>
        <mxCell id="E8W4lwWyUq7ppPV35f_z-15" value="contraseÃ±a" style="shape=partialRectangle;connectable=0;fillColor=none;top=0;left=0;bottom=0;right=0;align=left;spacingLeft=6;overflow=hidden;whiteSpace=wrap;html=1;" vertex="1" parent="E8W4lwWyUq7ppPV35f_z-13">
          <mxGeometry x="30" width="150" height="30" as="geometry">
            <mxRectangle width="150" height="30" as="alternateBounds" />
          </mxGeometry>
        </mxCell>
        <mxCell id="E8W4lwWyUq7ppPV35f_z-25" style="shape=tableRow;horizontal=0;startSize=0;swimlaneHead=0;swimlaneBody=0;fillColor=none;collapsible=0;dropTarget=0;points=[[0,0.5],[1,0.5]];portConstraint=eastwest;top=0;left=0;right=0;bottom=0;" vertex="1" parent="E8W4lwWyUq7ppPV35f_z-3">
          <mxGeometry y="150" width="180" height="30" as="geometry" />
        </mxCell>
        <mxCell id="E8W4lwWyUq7ppPV35f_z-26" value="UN" style="shape=partialRectangle;connectable=0;fillColor=none;top=0;left=0;bottom=0;right=0;editable=1;overflow=hidden;whiteSpace=wrap;html=1;" vertex="1" parent="E8W4lwWyUq7ppPV35f_z-25">
          <mxGeometry width="30" height="30" as="geometry">
            <mxRectangle width="30" height="30" as="alternateBounds" />
          </mxGeometry>
        </mxCell>
        <mxCell id="E8W4lwWyUq7ppPV35f_z-27" value="RFID" style="shape=partialRectangle;connectable=0;fillColor=none;top=0;left=0;bottom=0;right=0;align=left;spacingLeft=6;overflow=hidden;whiteSpace=wrap;html=1;" vertex="1" parent="E8W4lwWyUq7ppPV35f_z-25">
          <mxGeometry x="30" width="150" height="30" as="geometry">
            <mxRectangle width="150" height="30" as="alternateBounds" />
          </mxGeometry>
        </mxCell>
        <mxCell id="86RZNUnzGj02O4tXNOPN-1" style="shape=tableRow;horizontal=0;startSize=0;swimlaneHead=0;swimlaneBody=0;fillColor=none;collapsible=0;dropTarget=0;points=[[0,0.5],[1,0.5]];portConstraint=eastwest;top=0;left=0;right=0;bottom=0;" vertex="1" parent="E8W4lwWyUq7ppPV35f_z-3">
          <mxGeometry y="180" width="180" height="30" as="geometry" />
        </mxCell>
        <mxCell id="86RZNUnzGj02O4tXNOPN-2" style="shape=partialRectangle;connectable=0;fillColor=none;top=0;left=0;bottom=0;right=0;editable=1;overflow=hidden;whiteSpace=wrap;html=1;" vertex="1" parent="86RZNUnzGj02O4tXNOPN-1">
          <mxGeometry width="30" height="30" as="geometry">
            <mxRectangle width="30" height="30" as="alternateBounds" />
          </mxGeometry>
        </mxCell>
        <mxCell id="86RZNUnzGj02O4tXNOPN-3" value="rol" style="shape=partialRectangle;connectable=0;fillColor=none;top=0;left=0;bottom=0;right=0;align=left;spacingLeft=6;overflow=hidden;whiteSpace=wrap;html=1;" vertex="1" parent="86RZNUnzGj02O4tXNOPN-1">
          <mxGeometry x="30" width="150" height="30" as="geometry">
            <mxRectangle width="150" height="30" as="alternateBounds" />
          </mxGeometry>
        </mxCell>
        <mxCell id="86RZNUnzGj02O4tXNOPN-4" value="GRUPO" style="shape=table;startSize=30;container=1;collapsible=1;childLayout=tableLayout;fixedRows=1;rowLines=0;fontStyle=1;align=center;resizeLast=1;html=1;" vertex="1" parent="1">
          <mxGeometry x="235" y="185" width="180" height="60" as="geometry" />
        </mxCell>
        <mxCell id="86RZNUnzGj02O4tXNOPN-5" value="" style="shape=tableRow;horizontal=0;startSize=0;swimlaneHead=0;swimlaneBody=0;fillColor=none;collapsible=0;dropTarget=0;points=[[0,0.5],[1,0.5]];portConstraint=eastwest;top=0;left=0;right=0;bottom=1;" vertex="1" parent="86RZNUnzGj02O4tXNOPN-4">
          <mxGeometry y="30" width="180" height="30" as="geometry" />
        </mxCell>
        <mxCell id="86RZNUnzGj02O4tXNOPN-6" value="PK" style="shape=partialRectangle;connectable=0;fillColor=none;top=0;left=0;bottom=0;right=0;fontStyle=1;overflow=hidden;whiteSpace=wrap;html=1;" vertex="1" parent="86RZNUnzGj02O4tXNOPN-5">
          <mxGeometry width="30" height="30" as="geometry">
            <mxRectangle width="30" height="30" as="alternateBounds" />
          </mxGeometry>
        </mxCell>
        <mxCell id="86RZNUnzGj02O4tXNOPN-7" value="nombre" style="shape=partialRectangle;connectable=0;fillColor=none;top=0;left=0;bottom=0;right=0;align=left;spacingLeft=6;fontStyle=5;overflow=hidden;whiteSpace=wrap;html=1;" vertex="1" parent="86RZNUnzGj02O4tXNOPN-5">
          <mxGeometry x="30" width="150" height="30" as="geometry">
            <mxRectangle width="150" height="30" as="alternateBounds" />
          </mxGeometry>
        </mxCell>
        <mxCell id="86RZNUnzGj02O4tXNOPN-23" value="SALA" style="shape=table;startSize=30;container=1;collapsible=1;childLayout=tableLayout;fixedRows=1;rowLines=0;fontStyle=1;align=center;resizeLast=1;html=1;" vertex="1" parent="1">
          <mxGeometry x="-311" y="531" width="180" height="60" as="geometry" />
        </mxCell>
        <mxCell id="86RZNUnzGj02O4tXNOPN-24" value="" style="shape=tableRow;horizontal=0;startSize=0;swimlaneHead=0;swimlaneBody=0;fillColor=none;collapsible=0;dropTarget=0;points=[[0,0.5],[1,0.5]];portConstraint=eastwest;top=0;left=0;right=0;bottom=1;" vertex="1" parent="86RZNUnzGj02O4tXNOPN-23">
          <mxGeometry y="30" width="180" height="30" as="geometry" />
        </mxCell>
        <mxCell id="86RZNUnzGj02O4tXNOPN-25" value="PK" style="shape=partialRectangle;connectable=0;fillColor=none;top=0;left=0;bottom=0;right=0;fontStyle=1;overflow=hidden;whiteSpace=wrap;html=1;" vertex="1" parent="86RZNUnzGj02O4tXNOPN-24">
          <mxGeometry width="30" height="30" as="geometry">
            <mxRectangle width="30" height="30" as="alternateBounds" />
          </mxGeometry>
        </mxCell>
        <mxCell id="86RZNUnzGj02O4tXNOPN-26" value="codigo" style="shape=partialRectangle;connectable=0;fillColor=none;top=0;left=0;bottom=0;right=0;align=left;spacingLeft=6;fontStyle=5;overflow=hidden;whiteSpace=wrap;html=1;" vertex="1" parent="86RZNUnzGj02O4tXNOPN-24">
          <mxGeometry x="30" width="150" height="30" as="geometry">
            <mxRectangle width="150" height="30" as="alternateBounds" />
          </mxGeometry>
        </mxCell>
        <mxCell id="XPAY98p6mVZJmXmomv7M-2" style="rounded=0;orthogonalLoop=1;jettySize=auto;html=1;endArrow=none;endFill=0;" edge="1" parent="1" source="XPAY98p6mVZJmXmomv7M-24" target="86RZNUnzGj02O4tXNOPN-4">
          <mxGeometry relative="1" as="geometry">
            <mxPoint x="139.40816326530603" y="458.204081632653" as="sourcePoint" />
          </mxGeometry>
        </mxCell>
        <mxCell id="XPAY98p6mVZJmXmomv7M-55" value="N" style="edgeLabel;html=1;align=center;verticalAlign=middle;resizable=0;points=[];fontFamily=Helvetica;fontSize=11;fontColor=default;labelBackgroundColor=default;" connectable="0" vertex="1" parent="XPAY98p6mVZJmXmomv7M-2">
          <mxGeometry x="0.8523" y="-3" relative="1" as="geometry">
            <mxPoint x="7" as="offset" />
          </mxGeometry>
        </mxCell>
        <mxCell id="XPAY98p6mVZJmXmomv7M-4" style="edgeStyle=none;shape=connector;rounded=0;orthogonalLoop=1;jettySize=auto;html=1;strokeColor=default;align=center;verticalAlign=middle;fontFamily=Helvetica;fontSize=11;fontColor=default;labelBackgroundColor=default;endArrow=none;endFill=0;" edge="1" parent="1" source="XPAY98p6mVZJmXmomv7M-24" target="86RZNUnzGj02O4tXNOPN-23">
          <mxGeometry relative="1" as="geometry">
            <mxPoint x="167.38834951456306" y="412.19417475728164" as="sourcePoint" />
            <Array as="points">
              <mxPoint x="214" y="561" />
            </Array>
          </mxGeometry>
        </mxCell>
        <mxCell id="XPAY98p6mVZJmXmomv7M-54" value="1" style="edgeLabel;html=1;align=center;verticalAlign=middle;resizable=0;points=[];fontFamily=Helvetica;fontSize=11;fontColor=default;labelBackgroundColor=default;" connectable="0" vertex="1" parent="XPAY98p6mVZJmXmomv7M-4">
          <mxGeometry x="0.7303" y="-4" relative="1" as="geometry">
            <mxPoint x="-55" y="-7" as="offset" />
          </mxGeometry>
        </mxCell>
        <mxCell id="XPAY98p6mVZJmXmomv7M-43" style="edgeStyle=none;shape=connector;rounded=0;orthogonalLoop=1;jettySize=auto;html=1;strokeColor=default;align=center;verticalAlign=middle;fontFamily=Helvetica;fontSize=11;fontColor=default;labelBackgroundColor=default;endArrow=none;endFill=0;" edge="1" parent="1" source="86RZNUnzGj02O4tXNOPN-23" target="XPAY98p6mVZJmXmomv7M-42">
          <mxGeometry relative="1" as="geometry">
            <mxPoint x="-249.50877192982443" y="523" as="sourcePoint" />
          </mxGeometry>
        </mxCell>
        <mxCell id="XPAY98p6mVZJmXmomv7M-59" value="1" style="edgeLabel;html=1;align=center;verticalAlign=middle;resizable=0;points=[];fontFamily=Helvetica;fontSize=11;fontColor=default;labelBackgroundColor=default;" connectable="0" vertex="1" parent="XPAY98p6mVZJmXmomv7M-43">
          <mxGeometry x="-0.8561" y="2" relative="1" as="geometry">
            <mxPoint x="10" y="-11" as="offset" />
          </mxGeometry>
        </mxCell>
        <mxCell id="XPAY98p6mVZJmXmomv7M-22" style="edgeStyle=none;shape=connector;rounded=0;orthogonalLoop=1;jettySize=auto;html=1;strokeColor=default;align=center;verticalAlign=middle;fontFamily=Helvetica;fontSize=11;fontColor=default;labelBackgroundColor=default;endArrow=none;endFill=0;" edge="1" parent="1" source="XPAY98p6mVZJmXmomv7M-21" target="E8W4lwWyUq7ppPV35f_z-3">
          <mxGeometry relative="1" as="geometry">
            <mxPoint x="-258.25641025641016" y="523" as="targetPoint" />
          </mxGeometry>
        </mxCell>
        <mxCell id="XPAY98p6mVZJmXmomv7M-61" value="N" style="edgeLabel;html=1;align=center;verticalAlign=middle;resizable=0;points=[];fontFamily=Helvetica;fontSize=11;fontColor=default;labelBackgroundColor=default;" connectable="0" vertex="1" parent="XPAY98p6mVZJmXmomv7M-22">
          <mxGeometry x="0.9405" y="2" relative="1" as="geometry">
            <mxPoint x="5" y="-13" as="offset" />
          </mxGeometry>
        </mxCell>
        <mxCell id="XPAY98p6mVZJmXmomv7M-23" style="edgeStyle=none;shape=connector;rounded=0;orthogonalLoop=1;jettySize=auto;html=1;strokeColor=default;align=center;verticalAlign=middle;fontFamily=Helvetica;fontSize=11;fontColor=default;labelBackgroundColor=default;endArrow=none;endFill=0;" edge="1" parent="1" source="XPAY98p6mVZJmXmomv7M-21" target="86RZNUnzGj02O4tXNOPN-4">
          <mxGeometry relative="1" as="geometry" />
        </mxCell>
        <mxCell id="XPAY98p6mVZJmXmomv7M-63" value="N" style="edgeLabel;html=1;align=center;verticalAlign=middle;resizable=0;points=[];fontFamily=Helvetica;fontSize=11;fontColor=default;labelBackgroundColor=default;" connectable="0" vertex="1" parent="XPAY98p6mVZJmXmomv7M-23">
          <mxGeometry x="0.8972" y="1" relative="1" as="geometry">
            <mxPoint x="-2" y="-8" as="offset" />
          </mxGeometry>
        </mxCell>
        <mxCell id="XPAY98p6mVZJmXmomv7M-21" value="pertenecer" style="shape=rhombus;perimeter=rhombusPerimeter;whiteSpace=wrap;html=1;align=center;" vertex="1" parent="1">
          <mxGeometry x="9" y="185" width="120" height="60" as="geometry" />
        </mxCell>
        <mxCell id="XPAY98p6mVZJmXmomv7M-51" style="edgeStyle=none;shape=connector;rounded=0;orthogonalLoop=1;jettySize=auto;html=1;strokeColor=default;align=center;verticalAlign=middle;fontFamily=Helvetica;fontSize=11;fontColor=default;labelBackgroundColor=default;endArrow=none;endFill=0;" edge="1" parent="1" source="XPAY98p6mVZJmXmomv7M-24" target="E8W4lwWyUq7ppPV35f_z-3">
          <mxGeometry relative="1" as="geometry">
            <Array as="points" />
            <mxPoint x="88.99999999999977" y="528" as="targetPoint" />
          </mxGeometry>
        </mxCell>
        <mxCell id="XPAY98p6mVZJmXmomv7M-56" value="N" style="edgeLabel;html=1;align=center;verticalAlign=middle;resizable=0;points=[];fontFamily=Helvetica;fontSize=11;fontColor=default;labelBackgroundColor=default;" connectable="0" vertex="1" parent="XPAY98p6mVZJmXmomv7M-51">
          <mxGeometry x="0.7592" y="-2" relative="1" as="geometry">
            <mxPoint x="-18" y="-16" as="offset" />
          </mxGeometry>
        </mxCell>
        <mxCell id="XPAY98p6mVZJmXmomv7M-24" value="HORARIO" style="shape=associativeEntity;whiteSpace=wrap;html=1;align=center;fontFamily=Helvetica;fontSize=11;fontColor=default;labelBackgroundColor=default;" vertex="1" parent="1">
          <mxGeometry x="142" y="348" width="140" height="60" as="geometry" />
        </mxCell>
        <mxCell id="XPAY98p6mVZJmXmomv7M-40" style="edgeStyle=none;shape=connector;rounded=0;orthogonalLoop=1;jettySize=auto;html=1;strokeColor=default;align=center;verticalAlign=middle;fontFamily=Helvetica;fontSize=11;fontColor=default;labelBackgroundColor=default;endArrow=none;endFill=0;" edge="1" parent="1" source="XPAY98p6mVZJmXmomv7M-38" target="XPAY98p6mVZJmXmomv7M-24">
          <mxGeometry relative="1" as="geometry" />
        </mxCell>
        <mxCell id="XPAY98p6mVZJmXmomv7M-38" value="hora inicio" style="ellipse;whiteSpace=wrap;html=1;align=center;fontFamily=Helvetica;fontSize=11;fontColor=default;labelBackgroundColor=default;" vertex="1" parent="1">
          <mxGeometry x="326.75" y="404.5" width="72.5" height="29" as="geometry" />
        </mxCell>
        <mxCell id="XPAY98p6mVZJmXmomv7M-41" style="edgeStyle=none;shape=connector;rounded=0;orthogonalLoop=1;jettySize=auto;html=1;strokeColor=default;align=center;verticalAlign=middle;fontFamily=Helvetica;fontSize=11;fontColor=default;labelBackgroundColor=default;endArrow=none;endFill=0;" edge="1" parent="1" source="XPAY98p6mVZJmXmomv7M-39" target="XPAY98p6mVZJmXmomv7M-24">
          <mxGeometry relative="1" as="geometry" />
        </mxCell>
        <mxCell id="XPAY98p6mVZJmXmomv7M-39" value="hora final" style="ellipse;whiteSpace=wrap;html=1;align=center;fontFamily=Helvetica;fontSize=11;fontColor=default;labelBackgroundColor=default;" vertex="1" parent="1">
          <mxGeometry x="328" y="367" width="70" height="28" as="geometry" />
        </mxCell>
        <mxCell id="XPAY98p6mVZJmXmomv7M-44" style="edgeStyle=none;shape=connector;rounded=0;orthogonalLoop=1;jettySize=auto;html=1;strokeColor=default;align=center;verticalAlign=middle;fontFamily=Helvetica;fontSize=11;fontColor=default;labelBackgroundColor=default;endArrow=none;endFill=0;" edge="1" parent="1" source="XPAY98p6mVZJmXmomv7M-42" target="E8W4lwWyUq7ppPV35f_z-3">
          <mxGeometry relative="1" as="geometry" />
        </mxCell>
        <mxCell id="XPAY98p6mVZJmXmomv7M-60" value="N" style="edgeLabel;html=1;align=center;verticalAlign=middle;resizable=0;points=[];fontFamily=Helvetica;fontSize=11;fontColor=default;labelBackgroundColor=default;" connectable="0" vertex="1" parent="XPAY98p6mVZJmXmomv7M-44">
          <mxGeometry x="0.6911" y="2" relative="1" as="geometry">
            <mxPoint x="11" y="1" as="offset" />
          </mxGeometry>
        </mxCell>
        <mxCell id="XPAY98p6mVZJmXmomv7M-42" value="checkin" style="shape=rhombus;perimeter=rhombusPerimeter;whiteSpace=wrap;html=1;align=center;fontFamily=Helvetica;fontSize=11;fontColor=default;labelBackgroundColor=default;" vertex="1" parent="1">
          <mxGeometry x="-272.5" y="404.5" width="103" height="47" as="geometry" />
        </mxCell>
        <mxCell id="XPAY98p6mVZJmXmomv7M-46" style="edgeStyle=none;shape=connector;rounded=0;orthogonalLoop=1;jettySize=auto;html=1;strokeColor=default;align=center;verticalAlign=middle;fontFamily=Helvetica;fontSize=11;fontColor=default;labelBackgroundColor=default;endArrow=none;endFill=0;" edge="1" parent="1" source="XPAY98p6mVZJmXmomv7M-45" target="XPAY98p6mVZJmXmomv7M-42">
          <mxGeometry relative="1" as="geometry" />
        </mxCell>
        <mxCell id="XPAY98p6mVZJmXmomv7M-58" value="N" style="edgeLabel;html=1;align=center;verticalAlign=middle;resizable=0;points=[];fontFamily=Helvetica;fontSize=11;fontColor=default;labelBackgroundColor=default;" connectable="0" vertex="1" parent="XPAY98p6mVZJmXmomv7M-46">
          <mxGeometry x="-0.8238" y="1" relative="1" as="geometry">
            <mxPoint x="6" y="-8" as="offset" />
          </mxGeometry>
        </mxCell>
        <mxCell id="XPAY98p6mVZJmXmomv7M-45" value="HORA" style="whiteSpace=wrap;html=1;align=center;fontFamily=Helvetica;fontSize=11;fontColor=default;labelBackgroundColor=default;" vertex="1" parent="1">
          <mxGeometry x="-516" y="408" width="100" height="40" as="geometry" />
        </mxCell>
        <mxCell id="fcRUaoHgYwaDts0upMFB-4" style="edgeStyle=none;shape=connector;rounded=0;orthogonalLoop=1;jettySize=auto;html=1;strokeColor=default;align=center;verticalAlign=middle;fontFamily=Helvetica;fontSize=11;fontColor=default;labelBackgroundColor=default;endArrow=none;endFill=0;" edge="1" parent="1" source="fcRUaoHgYwaDts0upMFB-1" target="XPAY98p6mVZJmXmomv7M-24">
          <mxGeometry relative="1" as="geometry" />
        </mxCell>
        <mxCell id="fcRUaoHgYwaDts0upMFB-7" value="1" style="edgeLabel;html=1;align=center;verticalAlign=middle;resizable=0;points=[];fontFamily=Helvetica;fontSize=11;fontColor=default;labelBackgroundColor=default;" connectable="0" vertex="1" parent="fcRUaoHgYwaDts0upMFB-4">
          <mxGeometry x="0.8423" y="-1" relative="1" as="geometry">
            <mxPoint x="-4" y="-10" as="offset" />
          </mxGeometry>
        </mxCell>
        <mxCell id="fcRUaoHgYwaDts0upMFB-1" value="asistir" style="shape=rhombus;perimeter=rhombusPerimeter;whiteSpace=wrap;html=1;align=center;" vertex="1" parent="1">
          <mxGeometry x="-80" y="351" width="120" height="60" as="geometry" />
        </mxCell>
        <mxCell id="fcRUaoHgYwaDts0upMFB-6" style="edgeStyle=none;shape=connector;rounded=0;orthogonalLoop=1;jettySize=auto;html=1;strokeColor=default;align=center;verticalAlign=middle;fontFamily=Helvetica;fontSize=11;fontColor=default;labelBackgroundColor=default;endArrow=none;endFill=0;" edge="1" parent="1" source="fcRUaoHgYwaDts0upMFB-5" target="fcRUaoHgYwaDts0upMFB-1">
          <mxGeometry relative="1" as="geometry" />
        </mxCell>
        <mxCell id="fcRUaoHgYwaDts0upMFB-8" value="N" style="edgeLabel;html=1;align=center;verticalAlign=middle;resizable=0;points=[];fontFamily=Helvetica;fontSize=11;fontColor=default;labelBackgroundColor=default;" connectable="0" vertex="1" parent="fcRUaoHgYwaDts0upMFB-6">
          <mxGeometry x="-0.7994" relative="1" as="geometry">
            <mxPoint x="6" y="-5" as="offset" />
          </mxGeometry>
        </mxCell>
        <mxCell id="fcRUaoHgYwaDts0upMFB-5" value="HORA" style="whiteSpace=wrap;html=1;align=center;fontFamily=Helvetica;fontSize=11;fontColor=default;labelBackgroundColor=default;" vertex="1" parent="1">
          <mxGeometry x="-70" y="467" width="100" height="40" as="geometry" />
        </mxCell>
        <mxCell id="fcRUaoHgYwaDts0upMFB-14" style="edgeStyle=none;shape=connector;rounded=0;orthogonalLoop=1;jettySize=auto;html=1;strokeColor=default;align=center;verticalAlign=middle;fontFamily=Helvetica;fontSize=11;fontColor=default;labelBackgroundColor=default;endArrow=none;endFill=0;" edge="1" parent="1" source="fcRUaoHgYwaDts0upMFB-13" target="XPAY98p6mVZJmXmomv7M-24">
          <mxGeometry relative="1" as="geometry" />
        </mxCell>
        <mxCell id="fcRUaoHgYwaDts0upMFB-13" value="dia_semana" style="ellipse;whiteSpace=wrap;html=1;align=center;fontFamily=Helvetica;fontSize=11;fontColor=default;labelBackgroundColor=default;" vertex="1" parent="1">
          <mxGeometry x="326.75" y="325" width="70" height="28" as="geometry" />
        </mxCell>
      </root>
    </mxGraphModel>
  </diagram>
</mxfile>
